<svg width="157" height="65" viewBox="0 0 157 65" fill="none" xmlns="http://www.w3.org/2000/svg">
<g clip-path="url(#clip0_1322_8474)">
<path d="M38.207 20.465L24.9352 7.25475C24.2491 6.57162 23.3173 6.17928 22.3438 6.17467L3.74097 6.01773C1.67811 5.99927 0 7.66093 0 9.71032V40.608C2.31319 52.8766 14.0692 43.0682 14.0692 43.0682L20.4015 37.1647L8.31172 32.0412C7.97332 31.8981 7.9316 31.4366 8.23755 31.2335C8.85409 30.8227 9.60971 30.6842 10.3329 30.8411L23.7392 33.7629L28.7781 28.6071C29.2556 28.1132 30.0483 28.1225 30.5165 28.621L30.6973 28.8148C31.1469 29.2902 31.1238 30.038 30.6556 30.4903L25.459 35.5215L28.5046 48.7871C28.6761 49.5302 28.5232 50.3103 28.0874 50.938C27.8788 51.238 27.4245 51.1919 27.2808 50.8549L22.1306 38.8864L16.146 45.1361C8.39053 57.4924 17.3003 58.8632 20.4015 58.9879H35.5925C37.6415 58.9879 39.3011 57.3354 39.3011 55.2953V23.0775C39.3011 22.0989 38.9117 21.1573 38.2163 20.465H38.207Z" fill="#F9F9F9"/>
<path d="M62.6586 36.5641C62.6586 39.832 60.5587 42.9522 56.0343 42.9522H48.3438V22.043H54.9078C59.6408 22.043 61.2355 25.0755 61.2355 27.7249C61.2355 29.1512 60.7719 30.4851 59.6084 31.4083C61.6759 32.493 62.654 34.5239 62.654 36.5594L62.6586 36.5641ZM52.6642 26.0494V30.1713H54.7363C56.127 30.1713 56.9243 29.4051 56.9243 28.108C56.9243 26.811 56.127 26.0448 54.7641 26.0448H52.6642V26.0494ZM58.2826 36.5641C58.2826 35.0639 57.3369 34.1777 55.8581 34.1777H52.6642V38.9458H55.8581C57.3369 38.9458 58.2826 38.0642 58.2826 36.5594V36.5641Z" fill="#F9F9F9"/>
<path d="M69.7833 26.0817V30.2036H75.6381V34.2654H69.7833V38.9181H77.3533V42.9522H65.4629V22.043H77.3533V26.0771H69.7833V26.0817Z" fill="#F9F9F9"/>
<path d="M84.8673 38.9181H92.0526V42.9522H80.5469V22.043H84.8627V38.9181H84.8673Z" fill="#F9F9F9"/>
<path d="M98.7318 22.0508V42.96H94.416V22.0508H98.7318Z" fill="#F9F9F9"/>
<path d="M105.109 24.0416V31.2375H112.294V33.2084H105.109V40.9582H114.107V42.9522H103V22.043H114.107V24.037H105.109V24.0416Z" fill="#F9F9F9"/>
<path d="M127.465 28.0316C127.465 25.3268 125.713 23.6236 123.159 23.6236C120.971 23.6236 119.223 24.9299 119.223 27.1085C119.223 29.0794 120.53 30.1641 122.797 30.9442L125.022 31.7011C127.919 32.7074 129.871 34.2952 129.871 37.4985C129.871 41.0942 126.821 43.3743 123.293 43.3743C119.765 43.3743 116.627 40.8818 116.627 36.9077V36.3123H118.736V36.8892C118.736 39.5294 120.665 41.3803 123.293 41.3803C125.921 41.3803 127.762 39.871 127.762 37.5816C127.762 35.4353 126.441 34.3829 123.961 33.5382L121.773 32.7905C119.033 31.8581 117.114 30.2656 117.114 27.1916C117.114 23.9513 119.635 21.625 123.159 21.625C126.992 21.625 129.556 24.1406 129.556 28.0086V28.4701H127.47V28.027L127.465 28.0316Z" fill="#F9F9F9"/>
<path d="M135.629 22.0508V42.96H133.52V22.0508H135.629Z" fill="#F9F9F9"/>
<path d="M156.688 22.0508V42.96H154.579V26.5973L148.752 35.7133H148.219L142.396 26.5973V42.96H140.287V22.0508H141.789L148.483 32.6623L155.186 22.0508H156.688Z" fill="#F9F9F9"/>
</g>
<defs>
<clipPath id="clip0_1322_8474">
<rect width="156.69" height="52.9655" fill="white" transform="translate(0 6.01758)"/>
</clipPath>
</defs>
</svg>
