<svg width="16" height="17" viewBox="0 0 16 17" fill="none" xmlns="http://www.w3.org/2000/svg">
<path d="M14.0306 9.03122L9.53063 13.5312C9.38973 13.6721 9.19863 13.7513 8.99938 13.7513C8.80012 13.7513 8.60902 13.6721 8.46813 13.5312C8.32723 13.3903 8.24807 13.1992 8.24807 13C8.24807 12.8007 8.32723 12.6096 8.46813 12.4687L11.6875 9.2506H2.5C2.30109 9.2506 2.11032 9.17158 1.96967 9.03093C1.82902 8.89028 1.75 8.69951 1.75 8.5006C1.75 8.30169 1.82902 8.11092 1.96967 7.97027C2.11032 7.82962 2.30109 7.7506 2.5 7.7506H11.6875L8.46937 4.5306C8.32848 4.3897 8.24932 4.19861 8.24932 3.99935C8.24932 3.80009 8.32848 3.60899 8.46937 3.4681C8.61027 3.3272 8.80137 3.24805 9.00062 3.24805C9.19988 3.24805 9.39098 3.3272 9.53187 3.4681L14.0319 7.9681C14.1018 8.03787 14.1573 8.12077 14.1951 8.21203C14.2329 8.3033 14.2523 8.40113 14.2522 8.49992C14.252 8.5987 14.2324 8.69649 14.1944 8.78767C14.1564 8.87885 14.1007 8.96162 14.0306 9.03122Z" fill="#1D1D1D"/>
</svg>
