<svg width="32" height="32" viewBox="0 0 32 32" fill="none" xmlns="http://www.w3.org/2000/svg">
<path d="M26.666 10.6673L15.9993 17.334L5.33268 10.6673V8.00065L15.9993 14.6673L26.666 8.00065M26.666 5.33398H5.33268C3.85268 5.33398 2.66602 6.52065 2.66602 8.00065V24.0007C2.66602 24.7079 2.94697 25.3862 3.44706 25.8863C3.94716 26.3864 4.62544 26.6673 5.33268 26.6673H26.666C27.3733 26.6673 28.0515 26.3864 28.5516 25.8863C29.0517 25.3862 29.3327 24.7079 29.3327 24.0007V8.00065C29.3327 7.29341 29.0517 6.61513 28.5516 6.11503C28.0515 5.61494 27.3733 5.33398 26.666 5.33398Z" fill="#A6A6A6"/>
</svg>
