<svg width="115" height="33" viewBox="0 0 115 33" fill="none" xmlns="http://www.w3.org/2000/svg">
<path d="M22.4 22.9C22.7919 22.9001 23.1701 23.0439 23.463 23.3043C23.7558 23.5648 23.9429 23.9236 23.9888 24.3128L24 24.5V30.9C23.9999 31.2919 23.8561 31.6701 23.5957 31.963C23.3352 32.2558 22.9764 32.4429 22.5872 32.4888L22.4 32.5H9.6C9.20811 32.4999 8.82986 32.3561 8.53701 32.0957C8.24415 31.8352 8.05705 31.4764 8.0112 31.0872L8 30.9V24.5C8.00005 24.1081 8.14393 23.7299 8.40434 23.437C8.66476 23.1441 9.0236 22.9571 9.4128 22.9112L9.6 22.9H22.4ZM27.2 8.5C28.473 8.5 29.6939 9.00571 30.5941 9.90589C31.4943 10.8061 32 12.027 32 13.3V24.5C32 25.3487 31.6629 26.1626 31.0627 26.7627C30.4626 27.3629 29.6487 27.7 28.8 27.7H27.2V22.9C27.2 22.0513 26.8629 21.2374 26.2627 20.6373C25.6626 20.0371 24.8487 19.7 24 19.7H8C7.15131 19.7 6.33737 20.0371 5.73726 20.6373C5.13714 21.2374 4.8 22.0513 4.8 22.9V27.7H3.2C2.35131 27.7 1.53737 27.3629 0.937258 26.7627C0.337142 26.1626 0 25.3487 0 24.5V13.3C0 12.027 0.505713 10.8061 1.40589 9.90589C2.30606 9.00571 3.52696 8.5 4.8 8.5H27.2ZM24 11.7H20.8C20.3922 11.7005 19.9999 11.8566 19.7034 12.1366C19.4069 12.4165 19.2284 12.7991 19.2045 13.2062C19.1806 13.6133 19.3131 14.0142 19.5748 14.3269C19.8366 14.6397 20.2078 14.8406 20.6128 14.8888L20.8 14.9H24C24.4078 14.8995 24.8001 14.7434 25.0966 14.4634C25.3931 14.1835 25.5716 13.8009 25.5955 13.3938C25.6194 12.9867 25.4869 12.5858 25.2252 12.2731C24.9634 11.9603 24.5922 11.7594 24.1872 11.7112L24 11.7ZM24 0.5C24.4243 0.5 24.8313 0.668571 25.1314 0.968629C25.4314 1.26869 25.6 1.67565 25.6 2.1V5.3H6.4V2.1C6.4 1.67565 6.56857 1.26869 6.86863 0.968629C7.16869 0.668571 7.57565 0.5 8 0.5H24Z" fill="#FBFBFB"/>
<path d="M44.5353 24.7344V10.7108H49.9189C50.8851 10.7108 51.7385 10.8803 52.4789 11.2191C53.2318 11.5579 53.8216 12.0599 54.2483 12.725C54.6749 13.3901 54.8883 14.212 54.8883 15.1908C54.8883 16.1446 54.6687 16.954 54.2294 17.6191C53.8028 18.2842 53.213 18.7924 52.46 19.1438C51.7196 19.4826 50.8726 19.652 49.9189 19.652H47.453V24.7344H44.5353ZM47.453 17.1108H49.9377C50.3518 17.1108 50.7094 17.0293 51.0106 16.8661C51.3118 16.703 51.5439 16.4771 51.7071 16.1885C51.8828 15.8999 51.9706 15.5673 51.9706 15.1908C51.9706 14.8018 51.8828 14.463 51.7071 14.1744C51.5439 13.8857 51.3118 13.6599 51.0106 13.4967C50.7094 13.3336 50.3518 13.252 49.9377 13.252H47.453V17.1108ZM56.5525 24.7344V14.4567H59.1878V16.9226L58.9996 16.565C59.2255 15.6991 59.5957 15.1156 60.1102 14.8144C60.6372 14.5006 61.2584 14.3438 61.9737 14.3438H62.5761V16.7908H61.6914C61.0012 16.7908 60.4427 17.0042 60.0161 17.4308C59.5894 17.845 59.3761 18.4348 59.3761 19.2003V24.7344H56.5525ZM63.8136 24.7344V14.4567H66.6371V24.7344H63.8136ZM63.8136 13.5344V10.7108H66.6371V13.5344H63.8136ZM68.7033 24.7344V14.4567H71.3386V16.4897L71.188 16.0379C71.4264 15.423 71.8091 14.9712 72.3362 14.6826C72.8758 14.3814 73.5033 14.2308 74.2186 14.2308C74.9966 14.2308 75.6742 14.394 76.2515 14.7203C76.8413 15.0465 77.2993 15.5046 77.6256 16.0944C77.9519 16.6716 78.115 17.3493 78.115 18.1273V24.7344H75.2915V18.7297C75.2915 18.3281 75.2099 17.983 75.0468 17.6944C74.8962 17.4057 74.6766 17.1799 74.388 17.0167C74.1119 16.8536 73.7856 16.772 73.4091 16.772C73.0452 16.772 72.7189 16.8536 72.4303 17.0167C72.1417 17.1799 71.9158 17.4057 71.7527 17.6944C71.6021 17.983 71.5268 18.3281 71.5268 18.7297V24.7344H68.7033ZM84.9222 24.8473C83.6799 24.8473 82.7136 24.5148 82.0234 23.8497C81.3458 23.172 81.0069 22.2308 81.0069 21.0261V16.9038H79.2752V14.4567H79.3693C79.8964 14.4567 80.2979 14.325 80.574 14.0614C80.8626 13.7979 81.0069 13.4026 81.0069 12.8755V12.1226H83.8305V14.4567H86.2399V16.9038H83.8305V20.8379C83.8305 21.1893 83.8932 21.4842 84.0187 21.7226C84.1442 21.9485 84.3387 22.1179 84.6022 22.2308C84.8658 22.3438 85.192 22.4003 85.5811 22.4003C85.6689 22.4003 85.7693 22.394 85.8822 22.3814C85.9952 22.3689 86.1144 22.3563 86.2399 22.3438V24.7344C86.0516 24.7595 85.8383 24.7846 85.5999 24.8097C85.3615 24.8348 85.1356 24.8473 84.9222 24.8473ZM95.1227 24.9603C94.0686 24.9603 93.0897 24.7783 92.1862 24.4144C91.2827 24.0505 90.4921 23.5422 89.8144 22.8897C89.1493 22.2246 88.6286 21.4528 88.2521 20.5744C87.8756 19.6959 87.6874 18.7422 87.6874 17.7132C87.6874 16.6842 87.8693 15.7305 88.2333 14.852C88.6097 13.9736 89.1305 13.2081 89.7956 12.5556C90.4733 11.903 91.2639 11.3948 92.1674 11.0308C93.0709 10.6669 94.056 10.485 95.1227 10.485C96.1893 10.485 97.1744 10.6669 98.078 11.0308C98.9815 11.3948 99.7658 11.903 100.431 12.5556C101.109 13.2081 101.629 13.9736 101.993 14.852C102.37 15.7305 102.558 16.6842 102.558 17.7132C102.558 18.7422 102.37 19.6959 101.993 20.5744C101.617 21.4528 101.09 22.2246 100.412 22.8897C99.747 23.5422 98.9627 24.0505 98.0591 24.4144C97.1556 24.7783 96.1768 24.9603 95.1227 24.9603ZM95.1227 22.325C95.7627 22.325 96.3525 22.212 96.8921 21.9861C97.4442 21.7603 97.9274 21.4465 98.3415 21.045C98.7556 20.6308 99.0756 20.1414 99.3015 19.5767C99.5274 19.012 99.6403 18.3908 99.6403 17.7132C99.6403 17.0356 99.5274 16.4206 99.3015 15.8685C99.0756 15.3038 98.7556 14.8144 98.3415 14.4003C97.9274 13.9861 97.4442 13.6724 96.8921 13.4591C96.3525 13.2332 95.7627 13.1203 95.1227 13.1203C94.4827 13.1203 93.8866 13.2332 93.3344 13.4591C92.7948 13.6724 92.318 13.9861 91.9039 14.4003C91.4897 14.8144 91.1697 15.3038 90.9439 15.8685C90.718 16.4206 90.605 17.0356 90.605 17.7132C90.605 18.3908 90.718 19.012 90.9439 19.5767C91.1697 20.1414 91.4897 20.6308 91.9039 21.045C92.318 21.4465 92.7948 21.7603 93.3344 21.9861C93.8866 22.212 94.4827 22.325 95.1227 22.325ZM104.42 24.7344V14.4567H107.055V16.4897L106.905 16.0379C107.143 15.423 107.526 14.9712 108.053 14.6826C108.593 14.3814 109.22 14.2308 109.935 14.2308C110.714 14.2308 111.391 14.394 111.968 14.7203C112.558 15.0465 113.016 15.5046 113.343 16.0944C113.669 16.6716 113.832 17.3493 113.832 18.1273V24.7344H111.008V18.7297C111.008 18.3281 110.927 17.983 110.764 17.6944C110.613 17.4057 110.394 17.1799 110.105 17.0167C109.829 16.8536 109.503 16.772 109.126 16.772C108.762 16.772 108.436 16.8536 108.147 17.0167C107.859 17.1799 107.633 17.4057 107.47 17.6944C107.319 17.983 107.244 18.3281 107.244 18.7297V24.7344H104.42Z" fill="#FBFBFB"/>
</svg>
