<svg width="222" height="33" viewBox="0 0 222 33" fill="none" xmlns="http://www.w3.org/2000/svg">
<g clip-path="url(#clip0_1245_488)">
<mask id="mask0_1245_488" style="mask-type:luminance" maskUnits="userSpaceOnUse" x="-1" y="0" width="222" height="33">
<path d="M220.752 0.537109H-0.00390625V32.4644H220.752V0.537109Z" fill="white"/>
</mask>
<g mask="url(#mask0_1245_488)">
<path d="M6.39648 2.36788L8.01125 0.753099C8.29923 0.465113 8.75179 0.465113 9.03977 0.753099L16.1468 7.86017L14.0178 9.9892L6.39648 2.36788Z" fill="#F9F9F9"/>
<path d="M1.37695 22.9337L3.50598 20.8047L11.1273 28.4261L9.51254 30.0409C9.22455 30.3288 8.772 30.3288 8.48402 30.0409L1.37695 22.9337Z" fill="#F9F9F9"/>
<path d="M2.12512 6.62891L-0.00390625 8.75794L15.3827 24.1446L17.5118 22.0155L2.12512 6.62891Z" fill="#F9F9F9"/>
<path d="M38.0174 26.4404C36.5483 25.9895 35.3992 25.4077 34.541 24.6659L35.8501 21.7277C36.6792 22.3822 37.7119 22.9204 38.9192 23.3422C40.1265 23.7641 41.3483 23.9677 42.5701 23.9677C44.0828 23.9677 45.2174 23.7204 45.9592 23.2404C46.701 22.7604 47.0792 22.1204 47.0792 21.3204C47.0792 20.7386 46.8756 20.2586 46.4537 19.8804C46.0319 19.5022 45.5083 19.2113 44.8683 18.9932C44.2283 18.775 43.3556 18.5422 42.2501 18.2659C40.6937 17.9022 39.4428 17.5241 38.4828 17.1604C37.5228 16.7968 36.6937 16.215 36.0101 15.4295C35.3265 14.6441 34.9774 13.5822 34.9774 12.2441C34.9774 11.1241 35.2828 10.0913 35.8937 9.17497C36.5047 8.25861 37.421 7.51679 38.6574 6.97861C39.8937 6.44043 41.3919 6.16406 43.181 6.16406C44.4174 6.16406 45.6392 6.32406 46.8465 6.62952C48.0537 6.93497 49.0865 7.38588 49.9592 7.9677L48.7665 10.9059C47.8792 10.3822 46.9483 9.98952 45.9737 9.71315C44.9992 9.43679 44.0683 9.30588 43.1519 9.30588C41.6537 9.30588 40.5483 9.55315 39.821 10.0622C39.0937 10.5713 38.7301 11.2404 38.7301 12.0695C38.7301 12.6513 38.9337 13.1313 39.3556 13.495C39.7774 13.8586 40.301 14.1495 40.941 14.3677C41.581 14.5859 42.4537 14.8186 43.5592 15.095C45.0719 15.4441 46.3083 15.8077 47.2828 16.1859C48.2574 16.5641 49.0865 17.1459 49.7701 17.9168C50.4537 18.6877 50.8028 19.735 50.8028 21.0586C50.8028 22.1786 50.4974 23.1968 49.8865 24.1132C49.2756 25.0295 48.3447 25.7568 47.1083 26.295C45.8719 26.8332 44.3592 27.1095 42.5701 27.1095C40.9992 27.1095 39.4865 26.8913 38.0174 26.4404Z" fill="#F9F9F9"/>
<path d="M70.7032 11.2852V26.8197H67.2414V24.8415C66.6596 25.5397 65.9323 26.0779 65.0596 26.4561C64.1869 26.8342 63.2414 27.0233 62.2378 27.0233C60.1578 27.0233 58.5287 26.4415 57.336 25.2924C56.1432 24.1433 55.5469 22.427 55.5469 20.1579V11.2852H59.1832V19.6633C59.1832 21.0597 59.5032 22.107 60.1287 22.7906C60.7541 23.4742 61.656 23.8233 62.8196 23.8233C64.1141 23.8233 65.1469 23.4161 65.9178 22.6161C66.6887 21.8161 67.0669 20.6524 67.0669 19.1397V11.2852H70.7032Z" fill="#F9F9F9"/>
<path d="M89.5968 12.1004C90.7896 12.755 91.7205 13.6859 92.4041 14.8931C93.0877 16.1004 93.4223 17.4822 93.4223 19.0531C93.4223 20.6241 93.0877 22.0204 92.4041 23.2277C91.7205 24.435 90.7896 25.3804 89.5968 26.035C88.4041 26.6895 87.0514 27.0241 85.5386 27.0241C83.4441 27.0241 81.7859 26.3259 80.5641 24.9295V32.4641H76.9277V11.2859H80.3896V13.3222C80.9859 12.5804 81.7277 12.0277 82.615 11.6641C83.5023 11.3004 84.4768 11.1113 85.5386 11.1113C87.0514 11.1113 88.4041 11.4459 89.5968 12.1004ZM88.4332 22.5731C89.2914 21.6859 89.7277 20.5077 89.7277 19.0531C89.7277 17.5986 89.2914 16.4204 88.4332 15.5331C87.575 14.6459 86.4696 14.195 85.1314 14.195C84.2586 14.195 83.4732 14.3986 82.775 14.7913C82.0768 15.1841 81.5241 15.7513 81.1168 16.4931C80.7096 17.235 80.5059 18.0786 80.5059 19.0531C80.5059 20.0277 80.7096 20.8713 81.1168 21.6131C81.5241 22.355 82.0768 22.9222 82.775 23.315C83.4732 23.7077 84.2586 23.9113 85.1314 23.9113C86.4696 23.9113 87.575 23.4604 88.4332 22.5731Z" fill="#F9F9F9"/>
<path d="M109.946 22.2531L111.866 24.4931C111.182 25.3222 110.309 25.9622 109.248 26.3841C108.186 26.8059 106.979 27.0241 105.64 27.0241C103.939 27.0241 102.426 26.6895 101.131 26.0059C99.8368 25.3222 98.8331 24.3768 98.1204 23.1695C97.4077 21.9622 97.0586 20.5804 97.0586 19.0531C97.0586 17.5259 97.4077 16.1731 98.0913 14.9659C98.775 13.7586 99.735 12.8131 100.942 12.1295C102.15 11.4459 103.531 11.1113 105.059 11.1113C106.586 11.1113 107.837 11.4313 109.029 12.0568C110.222 12.6822 111.168 13.5841 111.866 14.7622C112.564 15.9404 112.913 17.3077 112.913 18.8786L101.015 21.2059C101.379 22.0931 101.975 22.7768 102.789 23.2422C103.604 23.7077 104.579 23.9404 105.728 23.9404C107.415 23.9404 108.826 23.3731 109.946 22.2531ZM101.815 15.3295C100.986 16.2022 100.579 17.3804 100.579 18.8495V18.8786L109.364 17.1913C109.117 16.2459 108.608 15.475 107.837 14.8931C107.066 14.3113 106.15 14.0204 105.059 14.0204C103.72 14.0204 102.644 14.4568 101.815 15.3295Z" fill="#F9F9F9"/>
<path d="M126.848 11.1113V14.5731C126.543 14.515 126.252 14.4859 126.005 14.4859C124.594 14.4859 123.488 14.8931 122.688 15.7222C121.888 16.5513 121.496 17.7295 121.496 19.2859V26.8204H117.859V11.2859H121.321V13.555C122.368 11.9259 124.216 11.1113 126.848 11.1113Z" fill="#F9F9F9"/>
<path d="M146.428 11.2859V26.8204H142.967V24.8131C142.37 25.555 141.628 26.1077 140.741 26.4713C139.854 26.835 138.879 27.0241 137.817 27.0241C136.305 27.0241 134.952 26.6895 133.759 26.035C132.567 25.3804 131.636 24.4495 130.967 23.2422C130.297 22.035 129.963 20.6386 129.963 19.0531C129.963 17.4677 130.297 16.0713 130.967 14.8786C131.636 13.6859 132.567 12.755 133.759 12.1004C134.952 11.4459 136.305 11.1113 137.817 11.1113C138.821 11.1113 139.752 11.2859 140.596 11.635C141.439 11.9841 142.167 12.4931 142.792 13.1768V11.2859H146.428ZM141.541 22.5731C142.414 21.6859 142.85 20.5077 142.85 19.0531C142.85 17.5986 142.414 16.4204 141.541 15.5331C140.668 14.6459 139.563 14.195 138.225 14.195C136.887 14.195 135.781 14.6459 134.923 15.5331C134.065 16.4204 133.628 17.5986 133.628 19.0531C133.628 20.5077 134.065 21.6859 134.923 22.5731C135.781 23.4604 136.887 23.9113 138.225 23.9113C139.563 23.9113 140.668 23.4604 141.541 22.5731Z" fill="#F9F9F9"/>
<path d="M163.487 25.6979C162.586 24.8106 162.135 23.5742 162.135 21.9597V5.23242H165.771V21.6979C165.771 23.2542 166.498 24.0251 167.953 24.0251C168.433 24.0251 168.869 23.9233 169.262 23.7342L169.437 26.6433C168.753 26.8906 168.026 27.0215 167.255 27.0215C165.64 27.0215 164.389 26.5851 163.487 25.6979Z" fill="#F9F9F9"/>
<path d="M173.54 8.09951C173.089 7.67769 172.871 7.1686 172.871 6.54315C172.871 5.91769 173.089 5.4086 173.54 4.98678C173.991 4.56496 174.544 4.36133 175.198 4.36133C175.853 4.36133 176.406 4.56496 176.857 4.95769C177.307 5.35042 177.526 5.85951 177.526 6.45587C177.526 7.09587 177.307 7.63406 176.871 8.07042C176.435 8.50678 175.882 8.72497 175.198 8.72497C174.515 8.72497 173.991 8.52133 173.54 8.09951ZM173.366 11.285H177.002V26.8195H173.366V11.285Z" fill="#F9F9F9"/>
<path d="M196.754 12.8277C197.932 13.9768 198.528 15.6641 198.528 17.9186V26.8204H194.892V18.3841C194.892 17.0313 194.572 15.9986 193.932 15.315C193.292 14.6313 192.376 14.2822 191.197 14.2822C189.859 14.2822 188.797 14.6895 188.027 15.4895C187.256 16.2895 186.863 17.4531 186.863 18.9659V26.8204H183.227V11.2859H186.688V13.2931C187.285 12.5804 188.041 12.0277 188.957 11.6641C189.874 11.3004 190.892 11.1113 192.041 11.1113C194.005 11.1113 195.576 11.6786 196.754 12.8277Z" fill="#F9F9F9"/>
<path d="M210.951 20.1561L208.246 22.7161V26.8179H204.609V5.23242H208.246V18.2651L215.78 11.2833H220.144L213.657 17.7997L220.755 26.8179H216.333L210.951 20.1561Z" fill="#F9F9F9"/>
</g>
</g>
<defs>
<clipPath id="clip0_1245_488">
<rect width="221.091" height="32" fill="white" transform="translate(0 0.5)"/>
</clipPath>
</defs>
</svg>
